<svg data-v-0dd9719b="" version="1.0" xmlns="http://www.w3.org/2000/svg" xmlns:xlink="http://www.w3.org/1999/xlink" width="100%" height="100%" viewBox="0 0 340.000000 250.000000" preserveAspectRatio="xMidYMid meet" color-interpolation-filters="sRGB" style="margin: auto;"> <rect data-v-0dd9719b="" x="0" y="0" width="100%" height="100%" fill="#fff" fill-opacity="1" class="background"></rect> <rect data-v-0dd9719b="" x="0" y="0" width="100%" height="100%" fill="url(#watermark)" fill-opacity="1" class="watermarklayer"></rect> <g data-v-0dd9719b="" fill="#141011" class="icon-text-wrapper icon-svg-group iconsvg" transform="translate(48.959999084472656,95.01199531555176)"><g class="iconsvg-imagesvg" transform="translate(0,0)"><g><rect fill="#141011" fill-opacity="0" stroke-width="2" x="0" y="0" width="60" height="59.97600959616154" class="image-rect"></rect> <svg x="0" y="0" width="60" height="59.97600959616154" filtersec="colorsb5599719370" class="image-svg-svg primary" style="overflow: visible;"><svg xmlns="http://www.w3.org/2000/svg" viewBox="0 0 75.25 75.22000122070312"><g><g><path d="M37.63 75.22L20.86 58.48l6.33-6.33 10.44 10.43 31.29-31.3 6.33 6.33z" fill="#141011"></path><path fill="#fd1a16" d="M31.29 48.04l27.2-27.18 6.32 6.32-27.18 27.2-6.34-6.34z"></path><path d="M37.63 0l16.76 16.76-6.34 6.32-10.42-10.42L6.34 43.94 0 37.62z" fill="#141011"></path><path fill="#fd1a16" d="M43.95 27.18l-27.19 27.2-6.32-6.34 27.19-27.18 6.32 6.32z"></path></g></g></svg></svg> <!----></g></g> <g transform="translate(67,1.0617523193359375)"><g data-gra="path-name" fill-rule="" class="tp-name iconsvg-namesvg" transform="translate(0,0)"><g transform="scale(1)"><g><path d="M18.63-36.39L18.98-36.91Q23.73-35.33 24.43-33.75L24.43-33.75Q25.14-31.99 23.03-30.06L23.03-30.06 36.04-30.06Q36.21-30.06 37.62-31.82L37.62-31.82Q37.97-32.34 37.97-32.34L37.97-32.34Q42.19-29.18 42.19-28.3L42.19-28.3Q42.19-28.3 41.66-28.3L41.66-28.3Q37.79-28.13 34.1-24.26L34.1-24.26 33.4-24.61Q34.28-25.66 35.33-26.89L35.33-26.89Q36.21-27.77 36.56-29L36.56-29 7.91-29Q8.09-26.02 7.21-24.43L7.21-24.43Q4.04-21.62 2.99-24.61L2.99-24.61Q3.16-25.14 4.04-26.02L4.04-26.02Q7.03-28.48 7.21-31.82L7.21-31.82 7.73-31.82Q7.73-30.94 7.91-30.06L7.91-30.06 22.15-30.06Q21.97-30.23 21.8-31.11L21.8-31.11Q21.09-34.8 18.63-36.39L18.63-36.39ZM34.8-19.34L36.91-21.97 41.31-18.63 41.13-18.28 24.26-18.28 24.26 1.58Q24.26 3.69 19.16 5.27L19.16 5.27Q19.51 1.93 13.01 0.7L13.01 0.7 13.01 0.18Q22.15 1.23 21.45-0.18L21.45-0.18 21.45-18.28 6.15-18.28 4.57-17.93 3.69-19.34 34.8-19.34ZM71.54-28.13L71.54-37.09Q76.11-34.98 76.11-34.8L76.11-34.8Q75.94-34.63 74.18-33.57L74.18-33.57 74.18-28.13 81.74-28.13Q81.74-28.13 82.44-28.83L82.44-28.83Q83.5-29.88 83.67-29.88L83.67-29.88Q87.19-27.25 87.54-26.54L87.54-26.54Q87.36-26.37 86.84-26.37L86.84-26.37Q83.5-26.19 79.63-21.97L79.63-21.97 79.28-22.32 81.91-27.07 74.18-27.07 74.18-17.58 78.57-17.58Q79.8-19.51 79.98-19.51L79.98-19.51Q82.79-17.4 83.32-16.52L83.32-16.52Q83.32-16.52 82.62-16.17L82.62-16.17Q81.39-15.47 81.39-15.29L81.39-15.29Q78.22-7.91 75.23-4.39L75.23-4.39Q81.04 0.18 88.59 1.23L88.59 1.23 88.59 1.76Q84.73 2.11 83.67 3.87L83.67 3.87Q83.5 4.22 83.5 4.22L83.5 4.22Q77.17 1.05 73.65-2.81L73.65-2.81Q66.8 2.81 57.83 5.1L57.83 5.1 57.66 4.57Q67.15 0.88 72.25-4.57L72.25-4.57Q68.73-9.14 67.5-16.7L67.5-16.7 63.98-16.7Q63.63-7.21 61.52-3.16L61.52-3.16Q59.24 1.58 53.09 5.45L53.09 5.45 52.73 5.1Q58.89 0 60.29-6.33L60.29-6.33Q62.05-12.3 61.52-30.06L61.52-30.06Q61.88-29.88 64.69-28.13L64.69-28.13 71.54-28.13ZM50.1-34.8L50.45-35.16Q55.2-33.22 55.9-31.99L55.9-31.99Q56.95-30.59 55.9-28.83L55.9-28.83Q54.49-26.72 53.79-28.48L53.79-28.48Q52.91-32.17 50.1-34.8L50.1-34.8ZM59.06-29.88L59.06-29.88 59.77-29.71Q53.79-11.43 53.09-7.38L53.09-7.38Q52.73-5.63 53.09-0.88L53.09-0.88Q53.44 1.93 53.26 2.46L53.26 2.46Q50.1 4.22 49.57 0.18L49.57 0.18Q50.98-5.27 50.63-7.03L50.63-7.03Q50.45-8.44 46.76-9.32L46.76-9.32 46.76-10.02Q50.63-9.32 51.15-10.2L51.15-10.2Q52.91-11.6 59.06-29.88ZM71.54-17.58L71.54-27.07 65.21-27.07Q64.16-27.25 64.16-24.79L64.16-24.79Q64.16-23.73 64.16-21.27L64.16-21.27Q63.98-18.63 63.98-17.58L63.98-17.58 71.54-17.58ZM46.58-25.66L47.11-26.02Q50.45-24.79 52.73-22.68L52.73-22.68Q53.44-21.45 52.21-19.51L52.21-19.51Q50.98-18.11 50.45-19.69L50.45-19.69Q49.75-22.68 46.58-25.66L46.58-25.66ZM78.57-16.7L78.57-16.7 68.2-16.7Q70.49-10.02 73.65-6.15L73.65-6.15Q77.34-11.43 78.57-16.7ZM112.5-36.74L112.85-37.27Q121.82-35.16 118.48-30.94L118.48-30.94 127.09-30.94 129.2-33.93 132.89-30.06 132.89-29.88 108.46-29.88 105.64-29 104.06-30.94 116.54-30.94Q116.54-31.11 116.37-31.46L116.37-31.46Q115.31-35.33 112.5-36.74L112.5-36.74ZM95.27-35.51L95.45-35.86Q100.2-34.28 102.3-32.17L102.3-32.17Q103.36-30.59 102.48-28.83L102.48-28.83Q101.25-27.25 100.2-28.65L100.2-28.65Q100.02-29 99.67-29.88L99.67-29.88Q98.96-32.7 95.27-35.51L95.27-35.51ZM124.63-28.13L124.63-28.13Q127.27-26.37 127.79-25.49L127.79-25.49Q127.09-24.96 126.39-24.61L126.39-24.61 126.56-19.16Q125.68-18.46 123.75-17.93L123.75-17.93 123.75-19.51 110.57-19.51 110.57-18.63Q109.51-17.58 108.11-17.4L108.11-17.4 108.11-27.77 111.8-26.37 123.05-26.37Q124.1-27.77 124.63-28.13ZM104.77-27.77L104.77-27.77 105.29-27.77Q98.44-7.56 98.79-7.56L98.79-7.56Q98.61-6.5 99.14-2.64L99.14-2.64Q100.02 3.52 99.14 4.22L99.14 4.22Q96.68 4.75 95.8 1.76L95.8 1.76Q95.8 1.05 96.15-1.41L96.15-1.41Q96.68-6.15 96.33-7.38L96.33-7.38Q95.8-8.61 92.11-9.14L92.11-9.14 92.11-9.84Q95.63-9.14 96.33-10.02L96.33-10.02Q97.21-9.49 104.06-25.84L104.06-25.84Q104.41-27.07 104.77-27.77ZM91.93-26.19L92.29-26.54Q95.98-24.61 97.73-22.32L97.73-22.32Q98.96-20.74 97.91-18.81L97.91-18.81Q96.5-17.05 95.63-19.16L95.63-19.16Q95.45-19.51 95.27-20.04L95.27-20.04Q94.39-23.2 91.93-26.19L91.93-26.19ZM123.75-20.57L123.75-25.31 112.5-25.31Q110.39-25.49 110.57-23.91L110.57-23.91 110.57-20.57 123.75-20.57ZM125.68-17.23L125.68-17.23Q126.74-16.52 129.02-13.71L129.02-13.71Q129.02-13.54 128.67-13.54L128.67-13.54Q125.33-13.71 118.83-9.49L118.83-9.49 118.83-7.38 127.44-7.38 129.38-10.02 133.42-6.86 133.24-6.33 118.83-6.33 118.83 0.88Q118.48 4.92 114.08 5.63L114.08 5.63Q113.91 5.45 113.91 4.92L113.91 4.92Q113.55 2.11 109.34 1.41L109.34 1.41 109.34 0.7Q117.07 2.29 116.02-0.35L116.02-0.35 116.02-6.33 106.17-6.33 103.71-5.63 101.95-7.38 116.02-7.38 115.84-11.95 118.65-10.9Q123.4-14.77 123.05-14.59L123.05-14.59 108.81-14.59 106-13.71 104.41-15.64 123.93-15.64Q125.68-17.4 125.68-17.23ZM155.21-26.54L155.21-37.27Q159.96-35.68 159.96-35.51L159.96-35.51Q158.03-33.93 158.03-33.57L158.03-33.57 158.03-26.54 160.84-26.54Q164.18-31.46 165.94-34.98L165.94-34.98Q169.45-32.52 169.45-32.17L169.45-32.17Q169.45-31.99 168.93-31.99L168.93-31.99Q167.7-31.99 166.82-31.11L166.82-31.11Q162.95-27.6 162.07-26.54L162.07-26.54 172.44-26.54Q172.62-26.72 173.32-27.6L173.32-27.6Q174.02-28.48 174.02-28.48L174.02-28.48Q177.01-26.37 178.07-24.96L178.07-24.96Q178.07-24.79 177.54-24.79L177.54-24.79Q174.73-24.96 170.51-20.57L170.51-20.57 169.98-21.09Q172.97-25.49 172.62-25.49L172.62-25.49 142.21-25.49Q142.03-21.8 140.27-20.57L140.27-20.57Q139.04-19.86 138.16-20.21L138.16-20.21Q137.46-20.74 137.64-21.97L137.64-21.97Q137.81-22.5 138.69-23.55L138.69-23.55Q141.33-26.19 141.33-28.83L141.33-28.83 142.03-28.65 142.21-26.54 155.21-26.54ZM151.17-31.29L151.17-31.29Q152.23-29.88 151.17-28.13L151.17-28.13Q149.59-26.54 149.06-28.3L149.06-28.3Q148.54-31.11 144.49-34.63L144.49-34.63 144.84-34.98Q149.59-33.22 151.17-31.29ZM164.36-23.38L164.36-23.38Q166.29-21.97 167.52-20.74L167.52-20.74Q166.99-20.57 165.94-19.69L165.94-19.69 166.11-13.71Q164.36-12.48 163.48-12.66L163.48-12.66 163.48-14.41 157.85-14.41 157.85-10.02 166.11-10.02Q167.34-11.6 167.34-11.78L167.34-11.78Q169.28-10.9 170.68-9.49L170.68-9.49Q170.68-9.32 169.28-8.26L169.28-8.26 169.28-1.41Q169.28 1.76 165.06 2.46L165.06 2.46Q165.06 2.46 164.88 2.11L164.88 2.11Q164.36-0.18 160.66-1.05L160.66-1.05 160.66-1.41Q167.7-0.35 166.64-2.46L166.64-2.46 166.64-8.96 157.85-8.96 157.85 4.04Q156.45 5.27 155.21 5.45L155.21 5.45 155.21-8.96 148.36-8.96Q146.6-9.14 146.78-7.21L146.78-7.21 146.78 1.23Q145.9 2.11 144.14 2.64L144.14 2.64 144.14-11.25 147.3-10.02 155.21-10.02 155.21-14.41 150.12-14.41 150.12-13.36Q149.06-12.48 147.48-12.13L147.48-12.13 147.48-23.2 151.17-21.62 162.6-21.62Q162.77-21.62 163.48-22.5L163.48-22.5Q164.36-23.38 164.36-23.38ZM163.48-15.47L163.48-20.57 152.05-20.57Q150.12-20.57 150.12-19.16L150.12-19.16 150.12-15.47 163.48-15.47Z" transform="translate(-2.990000009536743, 37.27000045776367)"></path></g> <!----> <!----> <!----> <!----> <!----> <!----> <!----></g></g> <g data-gra="path-slogan" fill-rule="" class="tp-slogan iconsvg-slogansvg" fill="#141011" transform="translate(24.330001831054688,48.900001525878906)"><!----> <!----> <g transform="scale(1, 1)"><g transform="scale(1)"><path d="M2.30-8.58L6.61-1.64L6.61-8.58L7.73-8.58L7.73 0L6.42 0L2.06-6.94L2.02-6.94L2.02 0L0.89 0L0.89-8.58L2.30-8.58ZM9.70-8.58L10.88-8.58L10.88 0L9.70 0L9.70-8.58ZM14.25-8.58L18.56-1.64L18.56-8.58L19.69-8.58L19.69 0L18.38 0L14.02-6.94L13.97-6.94L13.97 0L12.84 0L12.84-8.58L14.25-8.58ZM27.89-3.61L25.27-3.61L25.27-4.59L29.02-4.59L29.02 0L28.27 0L27.98-1.08Q27 0.09 25.17 0.14L25.17 0.14Q23.44 0.14 22.50-0.75L22.50-0.75Q21.09-2.06 21.14-4.36L21.14-4.36Q21.47-8.63 25.22-8.81L25.22-8.81Q28.41-8.63 28.88-6L28.88-6L27.75-6Q27.28-7.78 25.17-7.83L25.17-7.83Q22.50-7.64 22.36-4.31L22.36-4.31Q22.36-0.75 25.22-0.75L25.22-0.75Q26.25-0.75 27-1.31L27-1.31Q27.94-2.06 27.89-3.61L27.89-3.61ZM34.03-7.64L31.97-7.64L31.97-4.97L34.03-4.97Q35.86-4.92 35.81-6.38L35.81-6.38Q35.81-7.64 34.03-7.64L34.03-7.64ZM34.50 0L30.80 0L30.80-8.58L34.59-8.58Q36.89-8.48 36.98-6.42L36.98-6.42Q36.98-5.16 35.86-4.64L35.86-4.64Q37.45-4.08 37.45-2.53L37.45-2.53Q37.31-0.09 34.50 0L34.50 0ZM34.22-3.98L31.97-3.98L31.97-0.98L34.45-0.98Q36.23-1.03 36.28-2.53L36.28-2.53Q36.28-3.98 34.22-3.98L34.22-3.98ZM45.56-4.27L45.56-4.27Q45.38-7.64 42.56-7.83L42.56-7.83Q39.70-7.69 39.56-4.27L39.56-4.27Q39.70-0.94 42.56-0.80L42.56-0.80Q45.38-0.98 45.56-4.27ZM46.73-4.27L46.73-4.27Q46.45 0 42.56 0.14L42.56 0.14Q38.63 0 38.34-4.27L38.34-4.27Q38.58-8.72 42.56-8.81L42.56-8.81Q46.45-8.67 46.73-4.27ZM58.59-6.05L58.59-6.05L57.47-6.05Q57.05-7.78 55.08-7.83L55.08-7.83Q52.36-7.69 52.27-4.36L52.27-4.36Q52.27-0.80 55.13-0.80L55.13-0.80Q57.09-0.84 57.56-3.19L57.56-3.19L58.69-3.19Q58.17 0.05 54.89 0.14L54.89 0.14Q51.14 0 51.05-4.31L51.05-4.31Q51.23-8.63 55.08-8.81L55.08-8.81Q58.13-8.72 58.59-6.05ZM61.22-5.06L65.72-5.06L65.72-8.58L66.89-8.58L66.89 0L65.72 0L65.72-3.98L61.22-3.98L61.22 0L60.05 0L60.05-8.58L61.22-8.58L61.22-5.06ZM74.34-3.19L74.34-8.58L75.52-8.58L75.52-3.05Q75.38 0.05 72 0.14L72 0.14Q68.86 0.05 68.72-2.86L68.72-2.86L68.72-8.58L69.89-8.58L69.89-3.19Q69.94-0.84 72.05-0.80L72.05-0.80Q74.34-0.84 74.34-3.19L74.34-3.19ZM78.70-8.58L83.02-1.64L83.02-8.58L84.14-8.58L84.14 0L82.83 0L78.47-6.94L78.42-6.94L78.42 0L77.30 0L77.30-8.58L78.70-8.58ZM93.09-6.05L93.09-6.05L91.97-6.05Q91.55-7.78 89.58-7.83L89.58-7.83Q86.86-7.69 86.77-4.36L86.77-4.36Q86.77-0.80 89.63-0.80L89.63-0.80Q91.59-0.84 92.06-3.19L92.06-3.19L93.19-3.19Q92.67 0.05 89.39 0.14L89.39 0.14Q85.64 0 85.55-4.31L85.55-4.31Q85.73-8.63 89.58-8.81L89.58-8.81Q92.63-8.72 93.09-6.05ZM95.72-5.06L100.22-5.06L100.22-8.58L101.39-8.58L101.39 0L100.22 0L100.22-3.98L95.72-3.98L95.72 0L94.55 0L94.55-8.58L95.72-8.58L95.72-5.06ZM108.84 0L108-2.48L104.53-2.48L103.64 0L102.47 0L105.70-8.58L107.02-8.58L110.11 0L108.84 0ZM106.27-7.31L104.91-3.52L107.58-3.52L106.31-7.31L106.27-7.31ZM112.55-8.58L116.86-1.64L116.86-8.58L117.98-8.58L117.98 0L116.67 0L112.31-6.94L112.27-6.94L112.27 0L111.14 0L111.14-8.58L112.55-8.58ZM126.19-3.61L123.56-3.61L123.56-4.59L127.31-4.59L127.31 0L126.56 0L126.28-1.08Q125.30 0.09 123.47 0.14L123.47 0.14Q121.73 0.14 120.80-0.75L120.80-0.75Q119.39-2.06 119.44-4.36L119.44-4.36Q119.77-8.63 123.52-8.81L123.52-8.81Q126.70-8.63 127.17-6L127.17-6L126.05-6Q125.58-7.78 123.47-7.83L123.47-7.83Q120.80-7.64 120.66-4.31L120.66-4.31Q120.66-0.75 123.52-0.75L123.52-0.75Q124.55-0.75 125.30-1.31L125.30-1.31Q126.23-2.06 126.19-3.61L126.19-3.61Z" transform="translate(-0.890625, 8.8125)"></path></g></g></g></g></g><defs v-gra="od"></defs></svg>